<?xml version="1.0" encoding="UTF-8" standalone="no" ?>
<!DOCTYPE svg PUBLIC "-//W3C//DTD SVG 1.1//EN" "http://www.w3.org/Graphics/SVG/1.1/DTD/svg11.dtd">
<svg xmlns="http://www.w3.org/2000/svg" xmlns:xlink="http://www.w3.org/1999/xlink" version="1.1" width="1080" height="1080" viewBox="0 0 1080 1080" xml:space="preserve">
<desc>Created with Fabric.js 5.2.4</desc>
<defs>
</defs>
<g transform="matrix(1 0 0 1 540 540)" id="e1333eeb-bdf6-4443-85e8-32632ef57a48"  >
<rect style="stroke: none; stroke-width: 1; stroke-dasharray: none; stroke-linecap: butt; stroke-dashoffset: 0; stroke-linejoin: miter; stroke-miterlimit: 4; fill: rgb(255,255,255); fill-rule: nonzero; opacity: 1; visibility: hidden;" vector-effect="non-scaling-stroke"  x="-540" y="-540" rx="0" ry="0" width="1080" height="1080" />
</g>
<g transform="matrix(1 0 0 1 540 540)" id="6ff99a8d-d03b-407b-89d6-72c94b815cf6"  >
</g>
<g transform="matrix(1 0 0 1 546 546)" id="7b9c1899-1bfa-44e6-9edc-a54c96742d43"  >
<path style="stroke: rgb(255,0,0); stroke-width: 12; stroke-dasharray: none; stroke-linecap: butt; stroke-dashoffset: 0; stroke-linejoin: miter; stroke-miterlimit: 4; fill: rgb(249,0,0); fill-rule: nonzero; opacity: 1;" vector-effect="non-scaling-stroke"  transform=" translate(-16, -15.65)" d="M 16.105469 2.5351562 C 15.649335 2.5315682 15.193947 2.6430484 14.791016 2.8710938 C 12.204135 4.3291982 9.3582739 6.0810231 6.3964844 7.7871094 C 6.394526688530984 7.7884045862322395 6.392573543092775 7.789706660968685 6.390625 7.7910156 C 4.934111 8.6442641 3.7537333 9.984391 3.5507812 11.599609 C 3.5507805643619124 11.60025999984484 3.550780564361912 11.60091100015516 3.5507811999999994 11.601562 C 3.070352 15.475925 3.2819546 19.358573 4.1835938 23.226562 C 4.185480471661946 23.233092409739562 4.187433673166719 23.239603414772798 4.1894531 23.246094 C 4.4585727 24.308167 5.1073155 25.27809 5.9121094 26.095703 C 6.7169032 26.913317 7.6791299 27.579013 8.7421875 27.863281 C 8.748677849987207 27.865300656256274 8.755188621659407 27.867254091101834 8.7617188 27.869141 C 13.579059 29.056186 18.420941 29.056186 23.238281 27.869141 C 23.244811078067325 27.86725408914557 23.251321749724795 27.86530065430287 23.257812 27.863281 C 24.320871 27.579013 25.283157 26.913542 26.087891 26.095703 C 26.892624 25.277864 27.542058 24.306963 27.810547 23.244141 C 27.811901729035903 23.238293174167314 27.813203781803743 23.23243327001834 27.814453 23.226562 C 28.718163 19.352345 28.930776 15.464439 28.447266 11.583984 C 28.446615566135694 11.58333210069169 28.445964232181087 11.582681100070735 28.445312 11.582031 C 28.242468 9.9798449 27.07737 8.6471954 25.634766 7.7910156 C 25.632817257233697 7.789706659777569 25.63086391179253 7.788404585039979 25.628906 7.7871094 C 22.732857 6.095988 19.951052 4.355459 17.417969 2.8886719 C 17.01807 2.6566693 16.561603 2.5387444 16.105469 2.5351562 z M 16.091797 4.5097656 C 16.190422 4.5107078 16.289962 4.5471445 16.414062 4.6191406 C 18.902981 6.0603535 21.691183 7.8027971 24.621094 9.5136719 C 25.63428 10.117407 26.372813 11.145633 26.460938 11.832031 C 26.91478 15.474383 26.718353 19.107322 25.869141 22.755859 C 25.727048 23.31585 25.268911 24.076675 24.662109 24.693359 C 24.055311 25.31004 23.303878 25.779371 22.744141 25.929688 C 21.997265 26.11325 21.253393 26.082382 20.507812 26.205078 C 20.945272 23.683317 20.958002 21.066257 20.421875 18.570312 C 20.422224463075217 18.493417502946436 20.41370450738565 18.4167392439412 20.396484 18.341797 C 20.390432653337346 18.314818838239628 20.38326516252464 18.28810322060326 20.375 18.261719 C 20.37373995983238 18.256500267080952 20.372437917622516 18.25129176489736 20.371094 18.246094 C 20.36858626962273 18.238249462096896 20.365981737608934 18.23043619941428 20.363281 18.222656 C 20.360745540725926 18.2161184606005 20.358141396717148 18.209607767226785 20.355469 18.203125 C 20.346004934647535 18.178635484086634 20.33558019180412 18.154528141164327 20.324219 18.130859 C 20.310063562491337 18.100801920552986 20.294419163558967 18.071468881146775 20.277344 18.042969 C 20.092358964836183 17.7288488327668 19.75110934176467 17.54026332317486 19.386719 17.550781 C 17.224714 16.610059 14.8144 16.617036 12.652344 17.554688 C 12.155506073117548 17.51926524961884 11.708334857393412 17.854851721792933 11.603516 18.341797 C 11.602316 18.346897 11.602764 18.352322 11.601562 18.357422 C 11.58656281902315 18.425428108499755 11.578707869872735 18.494814889126943 11.578125 18.564453 C 11.578122457445831 18.56575499875872 11.578122457445831 18.56705700124128 11.578125 18.568359 C 11.04162 21.064863 11.054622 23.68268 11.492188 26.205078 C 10.746607 26.082382 10.002735 26.113247 9.2558594 25.929688 C 8.6960893 25.779394 7.9448786 25.310016 7.3378906 24.693359 C 6.7320554 24.077874 6.2742554 23.319202 6.1308594 22.759766 C 5.2833441 19.117002 5.0844626 15.486039 5.5351562 11.849609 L 5.5351562 11.847656 C 5.623024 11.154921 6.3775335 10.115977 7.4023438 9.515625 C 10.394786 7.7916807 13.239164 6.0397011 15.773438 4.6113281 C 15.77408899984484 4.611328735638088 15.77474000015516 4.611328735638088 15.775391 4.6113281 C 15.895459 4.5433734 15.993171 4.5088235 16.091797 4.5097656 z M 16 18.744141 C 16.858834 18.742541 17.69746 19.001507 18.505859 19.339844 C 18.957083 21.671327 18.962039 24.134409 18.478516 26.455078 C 16.827372 26.604628 15.172628 26.604628 13.521484 26.455078 C 13.038759 24.138253 13.043261 21.679682 13.492188 19.351562 C 14.299845 19.009047 15.139857 18.745697 16 18.744141 z" stroke-linecap="round" />
</g>
</svg>